<svg width="261" height="266" viewBox="0 0 261 266" fill="none" xmlns="http://www.w3.org/2000/svg">
<path fill-rule="evenodd" clip-rule="evenodd" d="M157.8 256.294C129.995 263.023 100.733 260.157 74.7621 248.16C48.7918 236.164 27.6389 215.741 14.7377 190.208L9.64702 192.78C23.1283 219.461 45.2322 240.802 72.3703 253.338C99.5084 265.874 130.087 268.87 159.142 261.837C188.197 254.805 214.021 238.159 232.424 214.601C250.826 191.042 260.725 161.956 260.513 132.063C260.302 102.17 249.993 73.226 231.259 49.9303C212.526 26.6346 186.468 10.3549 157.317 3.73434C128.166 -2.88626 97.6324 0.540955 70.6744 13.4596C43.7163 26.3782 21.9162 48.0296 8.8136 74.8988L13.9401 77.3987C26.479 51.6857 47.341 30.9658 73.1392 18.603C98.9373 6.2403 128.157 2.96054 156.054 9.29628C183.951 15.632 208.887 31.2112 226.815 53.5046C244.742 75.7979 254.608 103.496 254.81 132.103C255.012 160.71 245.539 188.545 227.929 211.089C210.318 233.634 185.605 249.564 157.8 256.294ZM7.20639 172.352C7.20639 175.067 9.41938 177.006 11.9974 177.006C14.621 177.006 16.7884 175.067 16.7884 172.33C16.7884 170.847 16.2409 169.683 15.5336 168.93C15.3511 168.702 15.1001 168.748 14.9404 168.907L13.8682 169.843C13.6857 170.002 13.7313 170.208 13.8682 170.436C14.1648 170.847 14.4385 171.508 14.4385 172.215C14.4385 173.539 13.3891 174.337 12.4537 174.406V168.565C12.4537 168.36 12.294 168.154 12.0658 168.132C11.9061 168.109 11.6096 168.086 11.4499 168.086C8.9859 168.086 7.20639 170.002 7.20639 172.352ZM10.8567 170.755V174.2C9.98973 174.086 9.3053 173.333 9.3053 172.421C9.3053 171.554 10.0125 170.824 10.8567 170.755ZM15.4652 167.121C15.6477 167.212 15.8302 167.121 15.9443 166.984C16.3093 166.505 16.7884 165.455 16.7884 163.95C16.7884 161.645 15.5108 160.322 14.0051 160.322C12.2255 160.322 11.4727 161.645 10.7882 163.402L10.7238 163.561C10.427 164.298 10.2824 164.657 9.89848 164.657C9.60189 164.657 9.37375 164.429 9.37375 163.881C9.37375 163.014 9.85285 161.987 9.85285 161.987C9.92129 161.805 9.89848 161.554 9.69315 161.44L8.52962 160.87C8.30147 160.756 8.05052 160.87 7.91363 161.075C7.59423 161.554 7.20638 162.535 7.20638 163.881C7.20638 166.208 8.5068 167.235 9.89848 167.235C11.2902 167.235 12.2255 166.413 12.91 164.657C13.3891 163.448 13.64 163.128 14.0507 163.128C14.4385 163.128 14.621 163.448 14.621 163.904C14.621 164.953 14.0735 165.98 14.0735 165.98C13.9594 166.185 14.0051 166.413 14.2332 166.505L15.4652 167.121ZM9.83003 158.286H13.8454C15.6933 158.286 16.7884 157.51 16.7884 155.753C16.7884 154.635 16.2637 153.152 16.1952 153.038C16.104 152.81 15.8758 152.696 15.6477 152.787L14.2104 153.244C13.9822 153.312 13.8682 153.495 13.9594 153.746C14.0507 153.997 14.2104 154.476 14.2104 154.864C14.2104 155.229 14.1191 155.571 13.4803 155.571H9.83003V153.563C9.83003 153.312 9.6247 153.13 9.39656 153.13H7.868C7.61704 153.13 7.43453 153.312 7.43453 153.563L7.43453 155.571H4.87932C4.65118 155.571 4.44585 155.753 4.44585 155.981L4.46866 157.852C4.46866 158.08 4.67399 158.286 4.90214 158.286H7.43453V159.061C7.43453 159.29 7.61704 159.472 7.868 159.472H9.39656C9.6247 159.472 9.83003 159.29 9.83003 159.061V158.286ZM15.6021 147.439H16.1268C16.3549 147.439 16.5603 147.257 16.5603 147.006V138.017C16.5603 137.789 16.3549 137.583 16.1268 137.583H14.5526C14.3245 137.583 14.1191 137.789 14.1191 138.017L14.1191 142.945C13.8372 142.722 13.5343 142.481 13.219 142.23C11.8251 141.121 10.1893 139.821 9.05435 139.021C7.77674 138.131 6.84135 137.492 5.35842 137.492C2.89447 137.492 0.818359 139.317 0.818359 142.58C0.818359 145.295 3.05418 147.074 3.05418 147.074C3.23669 147.234 3.51046 147.188 3.64735 147.051L4.74244 145.956C4.92495 145.774 4.92495 145.523 4.74244 145.34C4.17208 144.815 3.39639 143.88 3.39639 142.785C3.39639 141.142 4.44585 140.367 5.47249 140.367C6.24818 140.367 7.13794 140.823 8.00489 141.53C10.0354 143.059 13.7769 145.933 15.6021 147.439ZM8.80339 135.403C13.7997 135.403 16.7884 133.304 16.7884 129.654C16.7884 126.003 13.7997 123.904 8.80339 123.904C3.80705 123.904 0.818359 126.003 0.818359 129.654C0.818359 133.304 3.80705 135.403 8.80339 135.403ZM8.80339 126.893C12.2027 126.893 14.0963 127.897 14.0963 129.654C14.0963 131.41 12.2027 132.414 8.80339 132.414C5.42686 132.414 3.51046 131.41 3.51046 129.654C3.51046 127.897 5.42686 126.893 8.80339 126.893ZM15.6021 122.374H16.1268C16.3549 122.374 16.5603 122.191 16.5603 121.94V112.951C16.5603 112.723 16.3549 112.518 16.1268 112.518H14.5526C14.3245 112.518 14.1191 112.723 14.1191 112.951V117.879C13.8372 117.656 13.5342 117.415 13.2189 117.164C11.825 116.056 10.1893 114.755 9.05434 113.955C7.77674 113.065 6.84135 112.427 5.35842 112.427C2.89447 112.427 0.818359 114.252 0.818359 117.514C0.818359 120.229 3.05417 122.009 3.05417 122.009C3.23669 122.168 3.51046 122.123 3.64735 121.986L4.74243 120.891C4.92495 120.708 4.92495 120.457 4.74243 120.275C4.17208 119.75 3.39639 118.815 3.39639 117.719C3.39639 116.077 4.44585 115.301 5.47249 115.301C6.24818 115.301 7.13794 115.757 8.00488 116.465C10.0354 117.993 13.7769 120.868 15.6021 122.374ZM14.1876 110.885C14.3473 111.022 14.5982 111.044 14.7579 110.908C15.3511 110.406 16.7884 109.014 16.7884 106.162C16.7884 103.014 14.9176 100.915 12.3396 100.915C10.3091 100.915 9.07716 102.603 8.62087 103.675H8.55243C8.07333 102.649 6.7501 101.326 4.99339 101.326C2.43819 101.326 0.818359 103.539 0.818359 106.185C0.818359 108.74 2.82603 110.474 2.82603 110.474C2.98573 110.634 3.2595 110.657 3.4192 110.474L4.46866 109.356C4.65118 109.151 4.62836 108.9 4.44585 108.74C3.98956 108.352 3.35076 107.622 3.35076 106.436C3.35076 105.272 4.19489 104.223 5.44968 104.223C6.61321 104.223 7.5486 105.181 7.5486 107.052L7.5486 108.33C7.5486 108.603 7.7083 108.763 8.00488 108.763H9.44219C9.71596 108.763 9.89847 108.581 9.89847 108.33L9.89847 107.052C9.89847 104.999 10.9707 103.904 12.1571 103.904C13.4119 103.904 14.3016 105.09 14.3016 106.322C14.3016 107.714 13.1609 109.06 13.0697 109.128C12.8872 109.311 12.8872 109.516 13.0697 109.721L14.1876 110.885ZM66.9972 188.926H81.0248V141.699H126.225V129.386H81.0248V89.9531H129.186V77.6399H66.9972V188.926ZM190.936 82.1233H176.908V129.35H131.708V141.663H176.908V181.096H128.747V193.409H190.936V82.1233ZM206.089 189.388C206.961 190.26 208.124 190.745 209.351 190.745C210.579 190.745 211.71 190.292 212.614 189.42C212.873 189.129 212.873 188.709 212.614 188.451C212.324 188.192 211.904 188.192 211.645 188.451C211.031 189.065 210.224 189.388 209.351 189.388C208.479 189.388 207.672 189.065 207.058 188.451C205.798 187.191 205.798 185.123 207.058 183.863C207.672 183.25 208.479 182.926 209.351 182.926C210.224 182.926 211.031 183.25 211.645 183.863C211.936 184.122 212.356 184.122 212.614 183.863C212.873 183.573 212.873 183.153 212.614 182.894C211.742 182.022 210.579 181.537 209.351 181.537C208.124 181.537 206.961 182.022 206.089 182.894C204.279 184.671 204.279 187.579 206.089 189.388ZM201.469 186.157C201.469 190.486 204.99 194.04 209.351 194.04C213.681 194.04 217.234 190.518 217.234 186.157C217.234 181.796 213.681 178.274 209.351 178.274C204.99 178.274 201.469 181.828 201.469 186.157ZM202.826 186.157C202.826 182.539 205.765 179.631 209.351 179.631C212.97 179.631 215.877 182.539 215.877 186.157C215.877 189.775 212.938 192.683 209.351 192.683C205.733 192.683 202.826 189.775 202.826 186.157Z" fill="black"/>
</svg>
