<svg width="13" height="9" viewBox="0 0 13 9" fill="none" xmlns="http://www.w3.org/2000/svg">
<path id="Arrow 1" d="M1 4C0.723858 4 0.5 4.22386 0.5 4.5C0.5 4.77614 0.723858 5 1 5L1 4ZM11.8789 4.85355C12.0742 4.65829 12.0742 4.34171 11.8789 4.14645L8.69696 0.964467C8.5017 0.769205 8.18512 0.769205 7.98986 0.964467C7.79459 1.15973 7.79459 1.47631 7.98986 1.67157L10.8183 4.5L7.98986 7.32843C7.79459 7.52369 7.79459 7.84027 7.98986 8.03553C8.18512 8.2308 8.5017 8.2308 8.69696 8.03553L11.8789 4.85355ZM1 5L11.5254 5L11.5254 4L1 4L1 5Z" fill="black"/>
</svg>
