<svg width="32" height="33" viewBox="0 0 32 33" fill="none" xmlns="http://www.w3.org/2000/svg">
<g id="calendar-svgrepo-com (2) 1">
<path id="Vector" fill-rule="evenodd" clip-rule="evenodd" d="M5.33333 4.43359C6.06971 4.43359 6.66667 5.03055 6.66667 5.76693V7.10026H9.33333V5.76693C9.33333 5.03055 9.93029 4.43359 10.6667 4.43359C11.403 4.43359 12 5.03055 12 5.76693V7.10026H14.6667V5.76693C14.6667 5.03055 15.2636 4.43359 16 4.43359C16.7364 4.43359 17.3333 5.03055 17.3333 5.76693V7.10026H20V5.76693C20 5.03055 20.5969 4.43359 21.3333 4.43359C22.0697 4.43359 22.6667 5.03055 22.6667 5.76693V7.10026H25.3333V5.76693C25.3333 5.03055 25.9303 4.43359 26.6667 4.43359C27.4031 4.43359 28 5.03055 28 5.76693V8.43359V24.4336C28 26.6428 26.2092 28.4336 24 28.4336H8C5.79087 28.4336 4 26.6428 4 24.4336V8.43359V5.76693C4 5.03055 4.59696 4.43359 5.33333 4.43359ZM25.3333 9.76693H21.3333H16H10.6667H6.66667V24.4336C6.66667 25.17 7.26363 25.7669 8 25.7669H24C24.7364 25.7669 25.3333 25.17 25.3333 24.4336V9.76693ZM17.3333 13.7669C17.3333 14.5033 16.7364 15.1003 16 15.1003C15.2636 15.1003 14.6667 14.5033 14.6667 13.7669C14.6667 13.0305 15.2636 12.4336 16 12.4336C16.7364 12.4336 17.3333 13.0305 17.3333 13.7669ZM21.3333 15.1003C22.0697 15.1003 22.6667 14.5033 22.6667 13.7669C22.6667 13.0305 22.0697 12.4336 21.3333 12.4336C20.5969 12.4336 20 13.0305 20 13.7669C20 14.5033 20.5969 15.1003 21.3333 15.1003ZM12 17.7669C12 18.5033 11.403 19.1003 10.6667 19.1003C9.93029 19.1003 9.33333 18.5033 9.33333 17.7669C9.33333 17.0305 9.93029 16.4336 10.6667 16.4336C11.403 16.4336 12 17.0305 12 17.7669ZM16 19.1003C16.7364 19.1003 17.3333 18.5033 17.3333 17.7669C17.3333 17.0305 16.7364 16.4336 16 16.4336C15.2636 16.4336 14.6667 17.0305 14.6667 17.7669C14.6667 18.5033 15.2636 19.1003 16 19.1003ZM22.6667 17.7669C22.6667 18.5033 22.0697 19.1003 21.3333 19.1003C20.5969 19.1003 20 18.5033 20 17.7669C20 17.0305 20.5969 16.4336 21.3333 16.4336C22.0697 16.4336 22.6667 17.0305 22.6667 17.7669ZM10.6667 23.1003C11.403 23.1003 12 22.5033 12 21.7669C12 21.0305 11.403 20.4336 10.6667 20.4336C9.93029 20.4336 9.33333 21.0305 9.33333 21.7669C9.33333 22.5033 9.93029 23.1003 10.6667 23.1003ZM17.3333 21.7669C17.3333 22.5033 16.7364 23.1003 16 23.1003C15.2636 23.1003 14.6667 22.5033 14.6667 21.7669C14.6667 21.0305 15.2636 20.4336 16 20.4336C16.7364 20.4336 17.3333 21.0305 17.3333 21.7669ZM21.3333 23.1003C22.0697 23.1003 22.6667 22.5033 22.6667 21.7669C22.6667 21.0305 22.0697 20.4336 21.3333 20.4336C20.5969 20.4336 20 21.0305 20 21.7669C20 22.5033 20.5969 23.1003 21.3333 23.1003Z" fill="black"/>
</g>
</svg>
