<svg width="32" height="33" viewBox="0 0 32 33" fill="none" xmlns="http://www.w3.org/2000/svg">
<g id="contact-papperplane-communication-svgrepo-com 1" clip-path="url(#clip0_97_869)">
<g id="_x31_7_papperplane">
<g id="Group">
<g id="Group_2">
<path id="Vector" d="M31.4939 1.74232C31.4556 1.45337 31.1633 1.25207 30.8789 1.32227L3.70145 8.06467C3.5247 8.10862 3.38555 8.24507 3.33865 8.42112C3.29175 8.59717 3.34425 8.78487 3.47585 8.91087L10.443 15.59L9.06055 24.1648C9.0066 24.5004 9.309 24.7936 9.63965 24.737L18.6799 23.1708L27.2715 28.0202C27.3476 28.0632 27.4324 28.0847 27.5173 28.0847C27.5935 28.0847 27.6697 28.0673 27.74 28.0324C27.8884 27.9587 27.9908 27.8159 28.013 27.6516L31.4949 1.87447C31.5008 1.83002 31.4997 1.78577 31.4939 1.74232ZM4.8228 8.81687L28.445 2.95652L11.1266 14.8603L4.8228 8.81687ZM18.4566 22.1946L10.1595 23.6321L11.4093 15.8794L29.431 3.49217L18.4566 22.1946ZM27.1206 26.7866L19.4591 22.462L30.1707 4.20752L27.1206 26.7866Z" fill="black"/>
<path id="Vector_2" d="M7.22167 26.2662L4.87427 28.8707C4.68922 29.0758 4.70582 29.392 4.91087 29.5768C5.00632 29.663 5.12622 29.7054 5.24532 29.7054C5.38202 29.7054 5.51827 29.6498 5.61692 29.5401L7.96432 26.9356C8.14937 26.7305 8.13277 26.4144 7.92772 26.2296C7.72292 26.045 7.40652 26.0614 7.22167 26.2662Z" fill="black"/>
<path id="Vector_3" d="M2.97339 14.9895L0.627942 17.5938C0.443142 17.7991 0.459742 18.1153 0.665042 18.3001C0.760492 18.386 0.880142 18.4285 0.999292 18.4285C1.13624 18.4285 1.27224 18.3728 1.37114 18.2629L3.71659 15.6587C3.90139 15.4534 3.88479 15.1372 3.67949 14.9524C3.47384 14.7678 3.15844 14.7842 2.97339 14.9895Z" fill="black"/>
<path id="Vector_4" d="M20.4072 28.1778L18.0618 30.7804C17.8767 30.9855 17.8933 31.3016 18.0984 31.4864C18.1938 31.5726 18.3137 31.6151 18.4328 31.6151C18.5695 31.6151 18.7058 31.5594 18.8044 31.4498L21.1499 28.8472C21.3349 28.6421 21.3183 28.326 21.1133 28.1412C20.9084 27.9566 20.592 27.973 20.4072 28.1778Z" fill="black"/>
</g>
</g>
</g>
</g>
<defs>
<clipPath id="clip0_97_869">
<rect width="32" height="32" fill="white" transform="translate(-0.000488281 0.461426)"/>
</clipPath>
</defs>
</svg>
