<svg width="33" height="32" viewBox="0 0 33 32" fill="none" xmlns="http://www.w3.org/2000/svg">
<g id="doors-svgrepo-com 1" clip-path="url(#clip0_97_881)">
<g id="Group">
<path id="Vector" d="M14.6349 18.0895C14.6349 16.6166 13.4243 15.4182 11.9361 15.4182C10.4479 15.4182 9.2373 16.6166 9.2373 18.0895C9.2373 19.5623 10.4479 20.7607 11.9361 20.7607C13.4243 20.7607 14.6349 19.5623 14.6349 18.0895ZM11.0365 18.0895C11.0365 17.5984 11.44 17.199 11.9361 17.199C12.4322 17.199 12.8357 17.5984 12.8357 18.0895C12.8357 18.5805 12.4322 18.9799 11.9361 18.9799C11.44 18.9799 11.0365 18.5804 11.0365 18.0895Z" fill="black"/>
<path id="Vector_2" d="M31.8831 26.1925C32.3799 26.1925 32.7827 25.794 32.7827 25.3021V1.21439C32.7827 0.722524 32.3799 0.323975 31.8831 0.323975H16.8342H16.7992H6.46141C5.9646 0.323975 5.56182 0.722524 5.56182 1.21439C5.56182 1.70625 5.9646 2.1048 6.46141 2.1048H15.8996V30.2166H2.64977V1.21439C2.64977 0.722524 2.247 0.323975 1.75018 0.323975C1.25336 0.323975 0.850586 0.722524 0.850586 1.21439V31.107C0.850586 31.5989 1.25336 31.9974 1.75018 31.9974H16.7991H16.8341H31.883C32.3798 31.9974 32.7826 31.5989 32.7826 31.107C32.7826 30.6152 32.3798 30.2166 31.883 30.2166H17.7338V2.1048H30.9835V25.3021C30.9835 25.7939 31.3863 26.1925 31.8831 26.1925Z" fill="black"/>
<path id="Vector_3" d="M18.999 18.0894C18.999 19.5623 20.2096 20.7606 21.6978 20.7606C23.186 20.7606 24.3966 19.5623 24.3966 18.0894C24.3966 16.6165 23.186 15.4182 21.6978 15.4182C20.2096 15.4182 18.999 16.6164 18.999 18.0894ZM22.5974 18.0894C22.5974 18.5804 22.1939 18.9798 21.6978 18.9798C21.2017 18.9798 20.7982 18.5804 20.7982 18.0894C20.7982 17.5984 21.2017 17.199 21.6978 17.199C22.1939 17.199 22.5974 17.5984 22.5974 18.0894Z" fill="black"/>
</g>
</g>
<defs>
<clipPath id="clip0_97_881">
<rect width="32" height="31.6735" fill="white" transform="translate(0.817383 0.323975)"/>
</clipPath>
</defs>
</svg>
