<svg width="32" height="33" viewBox="0 0 32 33" fill="none" xmlns="http://www.w3.org/2000/svg">
<g id="Group">
<path id="Vector" d="M4.21466 6.39224C5.76141 4.84521 7.83599 3.94035 10.0221 3.85924C12.2083 3.77812 14.3442 4.52675 16.0013 5.9549C17.657 4.52913 19.7901 3.78134 21.9736 3.86125C24.1571 3.94116 26.2299 4.84286 27.7769 6.38584C29.3239 7.92882 30.231 9.9992 30.3167 12.1825C30.4023 14.3658 29.6601 16.5008 28.2387 18.1602L17.8853 28.5469C17.4097 29.0227 16.7717 29.3012 16.0994 29.3264C15.427 29.3516 14.77 29.1218 14.26 28.6829L14.1133 28.5482L3.76133 18.1602C2.34065 16.5023 1.5981 14.3692 1.68215 12.1874C1.7662 10.0056 2.67064 7.93599 4.21466 6.39224ZM6.1 8.27757C5.00965 9.36822 4.38113 10.8368 4.34489 12.3786C4.30864 13.9204 4.86745 15.4169 5.90533 16.5576L6.1 16.7629L16 26.6629L23.0707 19.5909L18.3573 14.8776L16.944 16.2909C16.5726 16.6625 16.1317 16.9572 15.6464 17.1584C15.1611 17.3595 14.6409 17.4631 14.1156 17.4632C13.0547 17.4635 12.037 17.0423 11.2867 16.2922C10.5363 15.5422 10.1146 14.5248 10.1143 13.4638C10.1141 12.4029 10.5353 11.3853 11.2853 10.6349L14.088 7.8309C12.9726 6.94073 11.5765 6.47715 10.1502 6.52334C8.72395 6.56952 7.36078 7.12244 6.30533 8.0829L6.1 8.27757ZM17.4147 12.0482C17.6647 11.7983 18.0038 11.6579 18.3573 11.6579C18.7109 11.6579 19.05 11.7983 19.3 12.0482L24.956 17.7042L25.9 16.7629C27.0086 15.6551 27.6397 14.1575 27.6584 12.5903C27.6771 11.0232 27.0819 9.51092 26 8.37697C24.9182 7.24302 23.4355 6.5774 21.8693 6.52244C20.303 6.46748 18.7773 7.02757 17.6187 8.0829L17.4147 8.27757L13.172 12.5202C12.9409 12.7512 12.8026 13.059 12.7835 13.3851C12.7643 13.7113 12.8655 14.0331 13.068 14.2896L13.172 14.4056C13.4029 14.6367 13.7107 14.7749 14.0369 14.7941C14.363 14.8133 14.6849 14.712 14.9413 14.5096L15.0573 14.4056L17.4147 12.0482Z" fill="black"/>
</g>
</svg>
