<svg width="261" height="266" viewBox="0 0 261 266" fill="none" xmlns="http://www.w3.org/2000/svg">
<path fill-rule="evenodd" clip-rule="evenodd" d="M157.465 256.581C129.661 263.311 100.398 260.445 74.4272 248.448C48.4568 236.451 27.3039 216.028 14.4027 190.495L9.31206 193.067C22.7933 219.749 44.8973 241.09 72.0353 253.626C99.1734 266.162 129.752 269.157 158.807 262.125C187.862 255.093 213.686 238.446 232.089 214.888C250.491 191.33 260.39 162.243 260.178 132.35C259.967 102.457 249.658 73.5136 230.924 50.2179C212.191 26.9222 186.133 10.6425 156.982 4.02193C127.831 -2.59866 97.2975 0.828553 70.3394 13.7472C43.3813 26.6658 21.5813 48.3172 8.47863 75.1864L13.6052 77.6863C26.144 51.9733 47.0061 31.2534 72.8042 18.8906C98.6024 6.5279 127.822 3.24814 155.719 9.58388C183.616 15.9196 208.552 31.4988 226.48 53.7922C244.407 76.0855 254.273 103.784 254.475 132.391C254.677 160.997 245.204 188.833 227.594 211.377C209.983 233.922 185.27 249.852 157.465 256.581ZM6.87142 172.64C6.87142 175.355 9.08442 177.294 11.6624 177.294C14.2861 177.294 16.4534 175.355 16.4534 172.617C16.4534 171.134 15.9059 169.971 15.1987 169.218C15.0161 168.99 14.7652 169.035 14.6055 169.195L13.5332 170.13C13.3507 170.29 13.3963 170.495 13.5332 170.724C13.8298 171.134 14.1036 171.796 14.1036 172.503C14.1036 173.826 13.0541 174.625 12.1187 174.693V168.853C12.1187 168.647 11.959 168.442 11.7309 168.419C11.5712 168.396 11.2746 168.374 11.1149 168.374C8.65094 168.374 6.87142 170.29 6.87142 172.64ZM10.5217 171.043V174.488C9.65477 174.374 8.97034 173.621 8.97034 172.708C8.97034 171.841 9.67759 171.111 10.5217 171.043ZM15.1302 167.408C15.3127 167.5 15.4952 167.408 15.6093 167.271C15.9743 166.792 16.4534 165.743 16.4534 164.237C16.4534 161.933 15.1758 160.61 13.6701 160.61C11.8906 160.61 11.1377 161.933 10.4533 163.69L10.3889 163.849C10.0921 164.585 9.94741 164.944 9.56352 164.944C9.26693 164.944 9.03879 164.716 9.03879 164.169C9.03879 163.302 9.51789 162.275 9.51789 162.275C9.58633 162.093 9.56352 161.842 9.35819 161.728L8.19466 161.157C7.96651 161.043 7.71555 161.157 7.57867 161.363C7.25927 161.842 6.87142 162.823 6.87142 164.169C6.87142 166.496 8.17184 167.522 9.56352 167.522C10.9552 167.522 11.8906 166.701 12.575 164.944C13.0541 163.735 13.3051 163.416 13.7157 163.416C14.1036 163.416 14.2861 163.735 14.2861 164.191C14.2861 165.241 13.7385 166.268 13.7385 166.268C13.6245 166.473 13.6701 166.701 13.8982 166.792L15.1302 167.408ZM9.49507 158.573H13.5104C15.3584 158.573 16.4534 157.798 16.4534 156.041C16.4534 154.923 15.9287 153.44 15.8603 153.326C15.769 153.098 15.5409 152.984 15.3127 153.075L13.8754 153.531C13.6473 153.6 13.5332 153.782 13.6245 154.033C13.7157 154.284 13.8754 154.763 13.8754 155.151C13.8754 155.516 13.7842 155.858 13.1454 155.858H9.49507L9.49507 153.851C9.49507 153.6 9.28974 153.417 9.0616 153.417H7.53304C7.28208 153.417 7.09957 153.6 7.09957 153.851L7.09957 155.858H4.54436C4.31622 155.858 4.11089 156.041 4.11089 156.269L4.1337 158.14C4.1337 158.368 4.33903 158.573 4.56718 158.573H7.09957V159.349C7.09957 159.577 7.28208 159.76 7.53304 159.76H9.0616C9.28974 159.76 9.49507 159.577 9.49507 159.349V158.573ZM15.2671 147.727H15.7918C16.02 147.727 16.2253 147.544 16.2253 147.293V138.304C16.2253 138.076 16.02 137.871 15.7918 137.871H14.2176C13.9895 137.871 13.7842 138.076 13.7842 138.304L13.7842 143.232C13.5022 143.009 13.1993 142.768 12.8841 142.518C11.4901 141.409 9.85437 140.108 8.71938 139.308C7.44178 138.418 6.50639 137.78 5.02346 137.78C2.55951 137.78 0.483398 139.605 0.483398 142.867C0.483398 145.582 2.71921 147.362 2.71921 147.362C2.90173 147.521 3.1755 147.476 3.31239 147.339L4.40748 146.244C4.58999 146.061 4.58999 145.81 4.40748 145.628C3.83712 145.103 3.06143 144.168 3.06143 143.073C3.06143 141.43 4.11089 140.654 5.13753 140.654C5.91322 140.654 6.80298 141.111 7.66992 141.818C9.7004 143.346 13.442 146.221 15.2671 147.727ZM8.46843 135.69C13.4648 135.69 16.4534 133.591 16.4534 129.941C16.4534 126.291 13.4648 124.192 8.46843 124.192C3.47209 124.192 0.483398 126.291 0.483398 129.941C0.483398 133.591 3.47209 135.69 8.46843 135.69ZM8.46843 127.181C11.8678 127.181 13.7614 128.184 13.7614 129.941C13.7614 131.698 11.8678 132.702 8.46843 132.702C5.0919 132.702 3.1755 131.698 3.1755 129.941C3.1755 128.184 5.0919 127.181 8.46843 127.181ZM15.2671 122.661H15.7918C16.02 122.661 16.2253 122.479 16.2253 122.228V113.239C16.2253 113.011 16.02 112.805 15.7918 112.805H14.2176C13.9895 112.805 13.7842 113.011 13.7842 113.239V118.167C13.5022 117.944 13.1993 117.703 12.8839 117.452C11.49 116.343 9.85433 115.043 8.71938 114.243C7.44178 113.353 6.50639 112.714 5.02346 112.714C2.55951 112.714 0.483398 114.539 0.483398 117.802C0.483398 120.517 2.71921 122.296 2.71921 122.296C2.90173 122.456 3.1755 122.41 3.31238 122.273L4.40747 121.178C4.58999 120.996 4.58999 120.745 4.40747 120.562C3.83711 120.038 3.06143 119.102 3.06143 118.007C3.06143 116.364 4.11089 115.589 5.13753 115.589C5.91322 115.589 6.80298 116.045 7.66992 116.752C9.7004 118.281 13.442 121.155 15.2671 122.661ZM13.8526 111.172C14.0123 111.309 14.2633 111.332 14.423 111.195C15.0161 110.693 16.4534 109.302 16.4534 106.45C16.4534 103.301 14.5827 101.203 12.0046 101.203C9.97417 101.203 8.7422 102.891 8.28591 103.963H8.21747C7.73837 102.936 6.41513 101.613 4.65843 101.613C2.10322 101.613 0.483398 103.826 0.483398 106.473C0.483398 109.028 2.49107 110.762 2.49107 110.762C2.65077 110.921 2.92454 110.944 3.08424 110.762L4.1337 109.644C4.31622 109.438 4.2934 109.188 4.11089 109.028C3.6546 108.64 3.0158 107.91 3.0158 106.724C3.0158 105.56 3.85993 104.511 5.11472 104.511C6.27825 104.511 7.21364 105.469 7.21364 107.34L7.21364 108.617C7.21364 108.891 7.37334 109.051 7.66992 109.051H9.10723C9.381 109.051 9.56351 108.868 9.56351 108.617L9.56351 107.34C9.56351 105.286 10.6358 104.191 11.8221 104.191C13.0769 104.191 13.9667 105.378 13.9667 106.61C13.9667 108.001 12.826 109.347 12.7347 109.416C12.5522 109.598 12.5522 109.804 12.7347 110.009L13.8526 111.172ZM66.6622 189.213H80.6899V141.987H125.89V129.674H80.6899V90.2407H128.851V77.9275H66.6622V189.213ZM190.601 82.4109H176.573V129.637H131.373V141.95H176.573V181.384H128.412V193.697H190.601V82.4109ZM205.754 189.675C206.626 190.548 207.789 191.032 209.017 191.032C210.244 191.032 211.375 190.58 212.279 189.708C212.538 189.417 212.538 188.997 212.279 188.738C211.989 188.48 211.569 188.48 211.31 188.738C210.696 189.352 209.889 189.675 209.017 189.675C208.144 189.675 207.337 189.352 206.723 188.738C205.463 187.479 205.463 185.411 206.723 184.151C207.337 183.537 208.144 183.214 209.017 183.214C209.889 183.214 210.696 183.537 211.31 184.151C211.601 184.409 212.021 184.409 212.279 184.151C212.538 183.86 212.538 183.44 212.279 183.182C211.407 182.309 210.244 181.825 209.017 181.825C207.789 181.825 206.626 182.309 205.754 183.182C203.944 184.959 203.944 187.866 205.754 189.675ZM201.134 186.445C201.134 190.774 204.655 194.328 209.017 194.328C213.346 194.328 216.899 190.806 216.899 186.445C216.899 182.083 213.346 178.562 209.017 178.562C204.655 178.562 201.134 182.116 201.134 186.445ZM202.491 186.445C202.491 182.826 205.43 179.919 209.017 179.919C212.635 179.919 215.542 182.826 215.542 186.445C215.542 190.063 212.603 192.971 209.017 192.971C205.398 192.971 202.491 190.063 202.491 186.445Z" fill="black"/>
</svg>
