<svg width="33" height="33" viewBox="0 0 33 33" fill="none" xmlns="http://www.w3.org/2000/svg">
<g id="glass-window-svgrepo-com 1" clip-path="url(#clip0_97_864)">
<path id="Vector" fill-rule="evenodd" clip-rule="evenodd" d="M3.73893 0.487793H29.4655C29.7561 0.488481 30.0345 0.60421 30.24 0.809667C30.4454 1.01512 30.5612 1.29359 30.5618 1.58415V31.3914C30.5605 31.6818 30.4445 31.9599 30.2392 32.1652C30.0339 32.3705 29.7558 32.4864 29.4655 32.4878H3.73893C3.44858 32.4864 3.17052 32.3705 2.96521 32.1652C2.7599 31.9599 2.64395 31.6818 2.64258 31.3914L2.64258 1.58415C2.64395 1.2938 2.7599 1.01573 2.96521 0.810421C3.17052 0.605111 3.44858 0.489163 3.73893 0.487793ZM20.6113 21.4956C20.7118 21.4318 20.8328 21.4086 20.9497 21.4307C21.0666 21.4529 21.1708 21.5186 21.241 21.6147C21.3112 21.7108 21.3423 21.83 21.3279 21.9481C21.3135 22.0662 21.2547 22.1744 21.1634 22.2508L19.8952 23.1857C19.7947 23.2495 19.6738 23.2727 19.5568 23.2506C19.4399 23.2285 19.3357 23.1627 19.2655 23.0666C19.1953 22.9705 19.1642 22.8514 19.1786 22.7332C19.193 22.6151 19.2518 22.5069 19.3431 22.4305L20.6113 21.4956ZM25.5905 17.3289C25.6369 17.286 25.6915 17.2528 25.751 17.2315C25.8106 17.2102 25.8738 17.2011 25.9369 17.2049C26 17.2086 26.0618 17.2251 26.1183 17.2533C26.1749 17.2816 26.2252 17.3209 26.2662 17.3691C26.3071 17.4173 26.3379 17.4733 26.3567 17.5336C26.3755 17.594 26.3818 17.6576 26.3754 17.7205C26.369 17.7834 26.3499 17.8444 26.3192 17.8997C26.2886 17.955 26.2471 18.0036 26.1973 18.0425L22.4082 21.2482C22.3632 21.2968 22.3085 21.3353 22.2475 21.3612C22.1866 21.3871 22.1209 21.3998 22.0547 21.3985C21.9885 21.3971 21.9233 21.3818 21.8635 21.3534C21.8037 21.3251 21.7505 21.2844 21.7075 21.234C21.6646 21.1836 21.6328 21.1247 21.6142 21.0612C21.5957 20.9976 21.5908 20.9308 21.5999 20.8653C21.609 20.7997 21.6319 20.7368 21.6671 20.6807C21.7023 20.6246 21.749 20.5766 21.804 20.5399L25.5879 17.3237L25.5905 17.3289ZM25.8197 21.0399C25.9157 20.9604 26.0393 20.9224 26.1633 20.9341C26.2874 20.9459 26.4017 21.0064 26.4811 21.1024C26.5605 21.1984 26.5986 21.322 26.5869 21.446C26.5751 21.5701 26.5146 21.6844 26.4186 21.7638L20.4577 26.631C20.3617 26.7091 20.2386 26.7458 20.1155 26.7331C19.9925 26.7204 19.8795 26.6593 19.8014 26.5633C19.7234 26.4673 19.6867 26.3442 19.6994 26.2212C19.7121 26.0981 19.7731 25.9851 19.8691 25.9071L25.8197 21.0399ZM12.3249 11.5685C12.2755 11.6073 12.2187 11.6357 12.1581 11.6522C12.0975 11.6686 12.0342 11.6727 11.972 11.6642C11.9097 11.6556 11.8498 11.6347 11.7959 11.6026C11.7419 11.5705 11.6949 11.5278 11.6577 11.4772C11.6205 11.4266 11.5939 11.369 11.5794 11.3079C11.5649 11.2468 11.5629 11.1834 11.5733 11.1215C11.5838 11.0595 11.6067 11.0003 11.6405 10.9474C11.6743 10.8945 11.7184 10.8489 11.7702 10.8133L13.0384 9.87842C13.1399 9.80659 13.2658 9.77803 13.3884 9.79903C13.511 9.82003 13.6202 9.88887 13.6921 9.9904C13.7639 10.0919 13.7924 10.2178 13.7714 10.3404C13.7504 10.463 13.6816 10.5722 13.5801 10.644L12.3145 11.5789L12.3249 11.5685ZM7.3431 15.7352C7.2971 15.7803 7.24228 15.8155 7.18207 15.8385C7.12186 15.8616 7.05754 15.8719 6.99315 15.8689C6.92876 15.866 6.86567 15.8498 6.80783 15.8213C6.74999 15.7928 6.69864 15.7528 6.65699 15.7036C6.61533 15.6544 6.58427 15.5971 6.56575 15.5354C6.54722 15.4736 6.54163 15.4088 6.54932 15.3448C6.55701 15.2808 6.57782 15.219 6.61045 15.1634C6.64307 15.1078 6.68681 15.0596 6.73893 15.0216L10.5228 11.8159C10.6185 11.7463 10.737 11.7154 10.8545 11.7295C10.972 11.7437 11.0798 11.8017 11.1563 11.892C11.2328 11.9824 11.2723 12.0983 11.2668 12.2165C11.2614 12.3348 11.2114 12.4465 11.127 12.5295L7.3431 15.7404V15.7352ZM7.10352 12.0243C7.05598 12.0629 7.0013 12.0918 6.94259 12.1093C6.88389 12.1268 6.82231 12.1326 6.76137 12.1263C6.70043 12.12 6.64133 12.1018 6.58743 12.0727C6.53354 12.0435 6.48591 12.0041 6.44727 11.9565C6.40862 11.909 6.37972 11.8543 6.36221 11.7956C6.3447 11.7369 6.33892 11.6753 6.34521 11.6144C6.35149 11.5535 6.36972 11.4944 6.39885 11.4405C6.42798 11.3866 6.46744 11.3389 6.51497 11.3003L12.4733 6.43311C12.5204 6.39135 12.5755 6.35957 12.6353 6.3397C12.695 6.31982 12.7582 6.31225 12.8209 6.31745C12.8837 6.32265 12.9447 6.34051 13.0004 6.36995C13.056 6.39939 13.1052 6.4398 13.1448 6.48874C13.1844 6.53769 13.2137 6.59415 13.2309 6.65472C13.2481 6.71529 13.2528 6.77872 13.2448 6.84118C13.2368 6.90364 13.2163 6.96383 13.1844 7.01812C13.1525 7.07241 13.1099 7.11967 13.0592 7.15706L7.10352 12.0243ZM4.82227 2.64925H15.5332V30.3341H4.82227V2.64144V2.64925ZM17.6764 2.64925H28.3874V30.3341H17.6764V2.64144V2.64925Z" fill="black"/>
</g>
<defs>
<clipPath id="clip0_97_864">
<rect width="32" height="32" fill="white" transform="translate(0.605469 0.487793)"/>
</clipPath>
</defs>
</svg>
