<svg width="42" height="43" viewBox="0 0 42 43" fill="none" xmlns="http://www.w3.org/2000/svg">
<g id="Icon / Facebook">
<path id="Vector" d="M28.875 11.1123H23.625C22.6585 11.1123 21.875 11.8958 21.875 12.8623V18.1123H28.875C29.074 18.1079 29.2628 18.2005 29.3811 18.3606C29.4994 18.5208 29.5326 18.7283 29.47 18.9173L28.175 22.7673C28.0557 23.1206 27.7254 23.3595 27.3525 23.3623H21.875V36.4873C21.875 36.9705 21.4832 37.3623 21 37.3623H16.625C16.1418 37.3623 15.75 36.9705 15.75 36.4873V23.3623H13.125C12.6418 23.3623 12.25 22.9705 12.25 22.4873V18.9873C12.25 18.5041 12.6418 18.1123 13.125 18.1123H15.75V12.8623C15.75 8.99631 18.8841 5.8623 22.75 5.8623H28.875C29.3582 5.8623 29.75 6.25406 29.75 6.7373V10.2373C29.75 10.7205 29.3582 11.1123 28.875 11.1123Z" fill="black"/>
</g>
</svg>
