<svg width="42" height="43" viewBox="0 0 42 43" fill="none" xmlns="http://www.w3.org/2000/svg">
<g id="Icon / Instagram">
<path id="Vector" fill-rule="evenodd" clip-rule="evenodd" d="M28 5.8623H14C9.16751 5.8623 5.25 9.77982 5.25 14.6123V28.6123C5.25 33.4448 9.16751 37.3623 14 37.3623H28C32.8324 37.3623 36.75 33.4448 36.75 28.6123V14.6123C36.75 9.77982 32.8324 5.8623 28 5.8623ZM33.6875 28.6123C33.6779 31.7494 31.1371 34.2902 28 34.2998H14C10.8629 34.2902 8.32211 31.7494 8.3125 28.6123V14.6123C8.32211 11.4752 10.8629 8.93441 14 8.9248H28C31.1371 8.93441 33.6779 11.4752 33.6875 14.6123V28.6123ZM29.3125 15.0498C30.279 15.0498 31.0625 14.2663 31.0625 13.2998C31.0625 12.3333 30.279 11.5498 29.3125 11.5498C28.346 11.5498 27.5625 12.3333 27.5625 13.2998C27.5625 14.2663 28.346 15.0498 29.3125 15.0498ZM21 13.7373C16.6508 13.7373 13.125 17.2631 13.125 21.6123C13.125 25.9616 16.6508 29.4873 21 29.4873C25.3493 29.4873 28.875 25.9616 28.875 21.6123C28.8797 19.5223 28.0515 17.5166 26.5736 16.0387C25.0957 14.5608 23.09 13.7326 21 13.7373ZM16.1875 21.6123C16.1875 24.2702 18.3421 26.4248 21 26.4248C23.6579 26.4248 25.8125 24.2702 25.8125 21.6123C25.8125 18.9544 23.6579 16.7998 21 16.7998C18.3421 16.7998 16.1875 18.9544 16.1875 21.6123Z" fill="black"/>
</g>
</svg>
