<svg width="32" height="33" viewBox="0 0 32 33" fill="none" xmlns="http://www.w3.org/2000/svg">
<g id="light-bulb-idea-innovation-creative-svgrepo-com 1">
<g id="_icons">
<g id="Group">
<path id="Vector" d="M15.9999 4.97949C12.7999 4.97949 9.99992 6.97949 8.66659 10.1795C7.73326 12.5795 7.73326 15.3795 8.79992 17.7795L10.9333 22.5795V25.2462C10.9333 26.5795 11.9999 27.6462 13.3333 27.6462C13.3333 28.4462 13.8666 28.9795 14.6666 28.9795H17.0666C17.8666 28.9795 18.3999 28.4462 18.3999 27.6462C19.7333 27.6462 20.7999 26.5795 20.7999 25.2462V22.5795L22.9333 17.7795C23.9999 15.3795 23.9999 12.5795 23.0666 10.1795C21.9999 6.97949 19.1999 4.97949 15.9999 4.97949ZM18.3999 24.9795H13.7333V23.6462H18.3999V24.9795ZM20.7999 16.7128L18.7999 20.9795H17.3333V19.2462C17.9999 19.1128 18.3999 18.5795 18.3999 17.9128C18.3999 17.1128 17.8666 16.5795 17.0666 16.5795H14.7999C13.9999 16.5795 13.4666 17.1128 13.4666 17.9128C13.4666 18.5795 13.9999 19.1128 14.5333 19.2462V20.9795H13.1999L11.3333 16.7128C10.5333 14.9795 10.5333 12.9795 11.1999 11.2462C12.1333 8.97949 13.8666 7.64616 15.9999 7.64616C18.1333 7.64616 19.8666 8.97949 20.7999 11.2462C21.4666 12.9795 21.4666 14.9795 20.7999 16.7128Z" fill="black"/>
<path id="Vector_2" d="M4.93464 6.71299C4.4013 6.17965 3.6013 6.17965 3.06797 6.71299C2.53464 7.24632 2.53464 8.04632 3.06797 8.57965L4.4013 9.91299C4.66797 10.1797 4.93464 10.313 5.33464 10.313C5.73464 10.313 6.0013 10.1797 6.26797 9.91299C6.8013 9.37965 6.8013 8.57965 6.26797 8.04632L4.93464 6.71299Z" fill="black"/>
<path id="Vector_3" d="M4.00065 14.3128C4.80065 14.3128 5.33398 13.7795 5.33398 12.9795C5.33398 12.1795 4.80065 11.6462 4.00065 11.6462H2.66732C1.86732 11.6462 1.33398 12.1795 1.33398 12.9795C1.33398 13.7795 1.86732 14.3128 2.66732 14.3128H4.00065Z" fill="black"/>
<path id="Vector_4" d="M4.4013 16.046L3.06797 17.3793C2.53464 17.9127 2.53464 18.7127 3.06797 19.246C3.33464 19.5127 3.6013 19.646 4.0013 19.646C4.4013 19.646 4.66797 19.5127 4.93464 19.246L6.26797 17.9127C6.8013 17.3793 6.8013 16.5793 6.26797 16.046C5.73463 15.5127 4.93464 15.5127 4.4013 16.046Z" fill="black"/>
<path id="Vector_5" d="M27.6007 16.0462C27.0673 15.5128 26.2673 15.5128 25.734 16.0462C25.2007 16.5795 25.2007 17.3795 25.734 17.9128L27.0673 19.2462C27.334 19.5128 27.734 19.6462 28.0007 19.6462C28.2673 19.6462 28.6673 19.5128 28.934 19.2462C29.4673 18.7128 29.4673 17.9128 28.934 17.3795L27.6007 16.0462Z" fill="black"/>
<path id="Vector_6" d="M29.3346 11.646H28.0013C27.2013 11.646 26.668 12.1793 26.668 12.9793C26.668 13.7793 27.2013 14.3127 28.0013 14.3127H29.3346C30.1346 14.3127 30.668 13.7793 30.668 12.9793C30.668 12.1793 30.1346 11.646 29.3346 11.646Z" fill="black"/>
<path id="Vector_7" d="M26.6673 10.3128C27.0673 10.3128 27.334 10.1795 27.6007 9.9128L28.934 8.57947C29.4673 8.04614 29.4673 7.24614 28.934 6.71281C28.4007 6.17947 27.6007 6.17947 27.0673 6.71281L25.734 8.04614C25.2007 8.57947 25.2007 9.37947 25.734 9.9128C26.0007 10.1795 26.2673 10.3128 26.6673 10.3128Z" fill="black"/>
</g>
</g>
</g>
</svg>
