<svg width="148" height="48" viewBox="0 0 148 48" fill="none" xmlns="http://www.w3.org/2000/svg">
<g id="Group 6">
<path id="Union" fill-rule="evenodd" clip-rule="evenodd" d="M28.4022 45.3976C23.5273 46.5774 18.3967 46.0749 13.8433 43.9715C9.29 41.8681 5.5813 38.2875 3.31936 33.8108L2.42682 34.2617C4.79046 38.9397 8.66592 42.6814 13.424 44.8793C18.1821 47.0773 23.5434 47.6024 28.6375 46.3695C33.7316 45.1366 38.2594 42.218 41.4858 38.0875C44.7123 33.9571 46.4478 28.8574 46.4108 23.6163C46.3737 18.3752 44.5662 13.3006 41.2817 9.21618C37.9972 5.13179 33.4286 2.2775 28.3175 1.11672C23.2065 -0.0440543 17.8532 0.556833 13.1266 2.82183C8.40012 5.08683 4.57796 8.88294 2.2807 13.5939L3.17952 14.0322C5.37794 9.52395 9.03565 5.89117 13.5588 3.72363C18.0819 1.55609 23.2049 0.981055 28.0961 2.09189C32.9872 3.20272 37.3593 5.93419 40.5024 9.84285C43.6456 13.7515 45.3753 18.6078 45.4108 23.6234C45.4463 28.6389 43.7854 33.5192 40.6978 37.4719C37.6102 41.4247 33.2772 44.2177 28.4022 45.3976ZM1.99891 30.6802C1.99891 31.1562 2.38691 31.4962 2.83891 31.4962C3.29891 31.4962 3.67891 31.1562 3.67891 30.6762C3.67891 30.4162 3.58291 30.2122 3.45891 30.0802C3.42691 30.0402 3.38291 30.0482 3.35491 30.0762L3.16691 30.2402C3.13491 30.2682 3.14291 30.3042 3.16691 30.3442C3.21891 30.4162 3.26691 30.5322 3.26691 30.6562C3.26691 30.8882 3.08291 31.0282 2.91891 31.0402V30.0162C2.91891 29.9802 2.89091 29.9442 2.85091 29.9402C2.82291 29.9362 2.77091 29.9322 2.74291 29.9322C2.31091 29.9322 1.99891 30.2682 1.99891 30.6802ZM2.63891 30.4002V31.0042C2.48691 30.9842 2.36691 30.8522 2.36691 30.6922C2.36691 30.5402 2.49091 30.4122 2.63891 30.4002ZM3.44691 29.763C3.47891 29.779 3.51091 29.763 3.53091 29.739C3.59491 29.655 3.67891 29.471 3.67891 29.207C3.67891 28.803 3.45491 28.571 3.19091 28.571C2.87891 28.571 2.74691 28.803 2.62691 29.111L2.61561 29.1389C2.56358 29.2681 2.53822 29.331 2.47091 29.331C2.41891 29.331 2.37891 29.291 2.37891 29.195C2.37891 29.043 2.46291 28.863 2.46291 28.863C2.47491 28.831 2.47091 28.787 2.43491 28.767L2.23091 28.667C2.19091 28.647 2.14691 28.667 2.12291 28.703C2.06691 28.787 1.99891 28.959 1.99891 29.195C1.99891 29.603 2.22691 29.783 2.47091 29.783C2.71491 29.783 2.87891 29.639 2.99891 29.331C3.08291 29.119 3.12691 29.063 3.19891 29.063C3.26691 29.063 3.29891 29.119 3.29891 29.199C3.29891 29.383 3.20291 29.563 3.20291 29.563C3.18291 29.599 3.19091 29.639 3.23091 29.655L3.44691 29.763ZM2.45891 28.2139H3.16291C3.48691 28.2139 3.67891 28.0779 3.67891 27.7699C3.67891 27.5739 3.58691 27.3139 3.57491 27.2939C3.55891 27.2539 3.51891 27.2339 3.47891 27.2499L3.22691 27.3299C3.18691 27.3419 3.16691 27.3739 3.18291 27.4179C3.19891 27.4619 3.22691 27.5459 3.22691 27.6139C3.22691 27.6779 3.21091 27.7379 3.09891 27.7379H2.45891L2.45891 27.3859C2.45891 27.3419 2.42291 27.3099 2.38291 27.3099H2.11491C2.07091 27.3099 2.03891 27.3419 2.03891 27.3859L2.03891 27.7379H1.59091C1.55091 27.7379 1.51491 27.7699 1.51491 27.8099L1.51891 28.1379C1.51891 28.1779 1.55491 28.2139 1.59491 28.2139H2.03891V28.3499C2.03891 28.3899 2.07091 28.4219 2.11491 28.4219H2.38291C2.42291 28.4219 2.45891 28.3899 2.45891 28.3499V28.2139ZM3.47091 26.3122H3.56291C3.60291 26.3122 3.63891 26.2802 3.63891 26.2362V24.6602C3.63891 24.6202 3.60291 24.5842 3.56291 24.5842H3.28691C3.24691 24.5842 3.21091 24.6202 3.21091 24.6602L3.21091 25.5242C3.16147 25.4851 3.10837 25.4429 3.05309 25.3989C2.80869 25.2046 2.5219 24.9765 2.32291 24.8362C2.09891 24.6802 1.93491 24.5682 1.67491 24.5682C1.24291 24.5682 0.878906 24.8882 0.878906 25.4602C0.878906 25.9362 1.27091 26.2482 1.27091 26.2482C1.30291 26.2762 1.35091 26.2682 1.37491 26.2442L1.56691 26.0522C1.59891 26.0202 1.59891 25.9762 1.56691 25.9442C1.46691 25.8522 1.33091 25.6882 1.33091 25.4962C1.33091 25.2082 1.51491 25.0722 1.69491 25.0722C1.83091 25.0722 1.98691 25.1522 2.13891 25.2762C2.49491 25.5442 3.15091 26.0482 3.47091 26.3122ZM2.27891 24.2019C3.15491 24.2019 3.67891 23.8339 3.67891 23.1939C3.67891 22.5539 3.15491 22.1859 2.27891 22.1859C1.40291 22.1859 0.878906 22.5539 0.878906 23.1939C0.878906 23.8339 1.40291 24.2019 2.27891 24.2019ZM2.27891 22.7099C2.87491 22.7099 3.20691 22.8859 3.20691 23.1939C3.20691 23.5019 2.87491 23.6779 2.27891 23.6779C1.68691 23.6779 1.35091 23.5019 1.35091 23.1939C1.35091 22.8859 1.68691 22.7099 2.27891 22.7099ZM3.47091 21.9175H3.56291C3.60291 21.9175 3.63891 21.8855 3.63891 21.8415V20.2655C3.63891 20.2255 3.60291 20.1895 3.56291 20.1895H3.28691C3.24691 20.1895 3.21091 20.2255 3.21091 20.2655V21.1295C3.16147 21.0904 3.10835 21.0482 3.05307 21.0042C2.80868 20.8099 2.5219 20.5818 2.32291 20.4415C2.09891 20.2855 1.93491 20.1735 1.67491 20.1735C1.24291 20.1735 0.878906 20.4935 0.878906 21.0655C0.878906 21.5415 1.27091 21.8535 1.27091 21.8535C1.30291 21.8815 1.35091 21.8735 1.37491 21.8495L1.56691 21.6575C1.59891 21.6255 1.59891 21.5815 1.56691 21.5495C1.46691 21.4575 1.33091 21.2935 1.33091 21.1015C1.33091 20.8135 1.51491 20.6775 1.69491 20.6775C1.83091 20.6775 1.98691 20.7575 2.13891 20.8815C2.49491 21.1495 3.15091 21.6535 3.47091 21.9175ZM3.22291 19.9032C3.25091 19.9272 3.29491 19.9312 3.32291 19.9072C3.42691 19.8192 3.67891 19.5752 3.67891 19.0752C3.67891 18.5232 3.35091 18.1552 2.89891 18.1552C2.54291 18.1552 2.32691 18.4512 2.24691 18.6392H2.23491C2.15091 18.4592 1.91891 18.2272 1.61091 18.2272C1.16291 18.2272 0.878906 18.6152 0.878906 19.0792C0.878906 19.5272 1.23091 19.8312 1.23091 19.8312C1.25891 19.8592 1.30691 19.8632 1.33491 19.8312L1.51891 19.6352C1.55091 19.5992 1.54691 19.5552 1.51491 19.5272C1.43491 19.4592 1.32291 19.3312 1.32291 19.1232C1.32291 18.9192 1.47091 18.7352 1.69091 18.7352C1.89491 18.7352 2.05891 18.9032 2.05891 19.2312L2.05891 19.4552C2.05891 19.5032 2.08691 19.5312 2.13891 19.5312H2.39091C2.43891 19.5312 2.47091 19.4992 2.47091 19.4552L2.47091 19.2312C2.47091 18.8712 2.65891 18.6792 2.86691 18.6792C3.08691 18.6792 3.24291 18.8872 3.24291 19.1032C3.24291 19.3472 3.04291 19.5832 3.02691 19.5952C2.99491 19.6272 2.99491 19.6632 3.02691 19.6992L3.22291 19.9032ZM12.4819 33.586H14.9414V25.3059H22.8662V23.1471H14.9414V16.2333H23.3854V14.0745H12.4819V33.586ZM34.2119 14.8605H31.7525V23.1406H23.8276V25.2995H31.7525V32.2132H23.3084V34.3721H34.2119V14.8605ZM36.8686 33.667C37.0215 33.82 37.2254 33.9049 37.4407 33.9049C37.6559 33.9049 37.8541 33.8256 38.0127 33.6727C38.0581 33.6217 38.0581 33.5481 38.0127 33.5028C37.9618 33.4574 37.8881 33.4574 37.8428 33.5028C37.7352 33.6104 37.5936 33.667 37.4407 33.667C37.2877 33.667 37.1461 33.6104 37.0385 33.5028C36.8176 33.2818 36.8176 32.9193 37.0385 32.6984C37.1461 32.5908 37.2877 32.5342 37.4407 32.5342C37.5936 32.5342 37.7352 32.5908 37.8428 32.6984C37.8938 32.7437 37.9674 32.7437 38.0127 32.6984C38.0581 32.6475 38.0581 32.5738 38.0127 32.5285C37.8598 32.3756 37.6559 32.2906 37.4407 32.2906C37.2254 32.2906 37.0215 32.3756 36.8686 32.5285C36.5514 32.84 36.5514 33.3498 36.8686 33.667ZM36.0586 33.1006C36.0586 33.8596 36.676 34.4827 37.4407 34.4827C38.1997 34.4827 38.8227 33.8653 38.8227 33.1006C38.8227 32.3359 38.1997 31.7185 37.4407 31.7185C36.676 31.7185 36.0586 32.3416 36.0586 33.1006ZM36.2965 33.1006C36.2965 32.4662 36.8119 31.9564 37.4407 31.9564C38.0751 31.9564 38.5848 32.4662 38.5848 33.1006C38.5848 33.735 38.0694 34.2448 37.4407 34.2448C36.8063 34.2448 36.2965 33.735 36.2965 33.1006Z" fill="#030303"/>
<g id="windows">
<path d="M56.7012 33.0706L52.9512 21.7906C52.7712 21.4006 53.0412 21.1006 53.4612 21.1006H55.6212C55.8012 21.1006 56.1012 21.2506 56.1612 21.4606L57.9612 26.8306H57.9912L61.0512 21.0706C61.1112 20.9506 61.2612 20.8006 61.5312 20.8006H61.7712C62.0412 20.8006 62.1612 20.9206 62.2512 21.0706L65.2812 26.8306H65.3112L67.1112 21.4606C67.2312 21.1306 67.4712 21.1006 67.8012 21.1006H69.7512C70.1712 21.1006 70.4412 21.4006 70.2912 21.7906L66.5412 33.0706C66.4812 33.2506 66.3012 33.4006 66.0012 33.4006H65.8812C65.6412 33.4006 65.4912 33.2806 65.4012 33.1306L61.6212 26.1406H61.5912L57.8412 33.1306C57.7512 33.2806 57.6012 33.4006 57.3612 33.4006H57.2112C56.9412 33.4006 56.7612 33.2506 56.7012 33.0706Z" fill="#030303"/>
<path d="M73.8675 16.8406C72.7275 16.8406 71.8275 15.9106 71.8275 14.7706C71.8275 13.6306 72.7275 12.7006 73.8675 12.7006C75.0375 12.7006 75.9675 13.6306 75.9675 14.7706C75.9675 15.9106 75.0375 16.8406 73.8675 16.8406ZM72.0975 32.5306V21.6706C72.0975 21.3406 72.3675 21.1006 72.6675 21.1006H75.1575C75.4575 21.1006 75.7275 21.3406 75.7275 21.6706V32.5306C75.7275 32.8306 75.4575 33.1006 75.1575 33.1006H72.6675C72.3675 33.1006 72.0975 32.8306 72.0975 32.5306Z" fill="#030303"/>
<path d="M78.7339 32.5306V21.6706C78.7339 21.3406 79.0039 21.1006 79.3039 21.1006H80.4439C80.7139 21.1006 80.8639 21.2506 80.9539 21.4606L81.3739 22.5706C81.8239 22.0906 83.2939 20.8006 85.6039 20.8006C89.4139 20.8006 90.9439 23.6506 90.9439 26.7706V32.5306C90.9439 32.8306 90.6739 33.1006 90.3739 33.1006H87.9139C87.5839 33.1006 87.3439 32.8306 87.3439 32.5306V26.5906C87.3439 25.0306 86.5339 24.0406 85.0939 24.0406C83.5339 24.0406 82.5739 25.1206 82.2739 25.9306V32.5306C82.2739 32.9506 82.0939 33.1006 81.5239 33.1006H79.3039C79.0039 33.1006 78.7339 32.8306 78.7339 32.5306Z" fill="#030303"/>
<path d="M92.7905 27.1006C92.7905 23.5906 95.1605 20.8006 98.7305 20.8006C99.9305 20.8006 100.861 21.1306 101.401 21.3406V12.6706C101.401 12.3706 101.671 12.1006 101.971 12.1006H104.521C104.821 12.1006 105.091 12.3706 105.091 12.6706V32.5306C105.091 32.8306 104.821 33.1006 104.521 33.1006H103.351C103.081 33.1006 102.871 32.8606 102.781 32.5306L102.481 31.6006C102.481 31.6006 101.071 33.4006 98.5505 33.4006C95.2805 33.4006 92.7905 30.5506 92.7905 27.1006ZM96.2705 27.1006C96.2705 28.7806 97.4105 30.1606 99.0005 30.1606C100.591 30.1606 101.311 28.9306 101.521 28.2106V24.7306C101.521 24.7306 100.681 24.0406 99.1805 24.0406C97.5005 24.0406 96.2705 25.4206 96.2705 27.1006Z" fill="#030303"/>
<path d="M107.161 27.0706C107.161 23.6806 109.921 20.8006 113.311 20.8006C116.701 20.8006 119.461 23.6806 119.461 27.0706C119.461 30.5206 116.701 33.4006 113.311 33.4006C109.921 33.4006 107.161 30.5206 107.161 27.0706ZM110.431 27.0706C110.431 28.7806 111.691 30.1606 113.311 30.1606C114.901 30.1606 116.191 28.7806 116.191 27.0706C116.191 25.3906 114.901 24.0406 113.311 24.0406C111.691 24.0406 110.431 25.3906 110.431 27.0706Z" fill="#030303"/>
<path d="M124.014 33.0706L120.264 21.7906C120.084 21.4006 120.354 21.1006 120.774 21.1006H122.934C123.114 21.1006 123.414 21.2506 123.474 21.4606L125.274 26.8306H125.304L128.364 21.0706C128.424 20.9506 128.574 20.8006 128.844 20.8006H129.084C129.354 20.8006 129.474 20.9206 129.564 21.0706L132.594 26.8306H132.624L134.424 21.4606C134.544 21.1306 134.784 21.1006 135.114 21.1006H137.064C137.484 21.1006 137.754 21.4006 137.604 21.7906L133.854 33.0706C133.794 33.2506 133.614 33.4006 133.314 33.4006H133.194C132.954 33.4006 132.804 33.2806 132.714 33.1306L128.934 26.1406H128.904L125.154 33.1306C125.064 33.2806 124.914 33.4006 124.674 33.4006H124.524C124.254 33.4006 124.074 33.2506 124.014 33.0706Z" fill="#030303"/>
<path d="M138.93 32.2906C138.75 32.1406 138.63 31.9006 138.75 31.6606L139.56 30.0406C139.68 29.7406 139.98 29.6806 140.25 29.8306C140.25 29.8306 141.6 30.5506 142.98 30.5506C143.58 30.5506 144 30.3106 144 29.8006C144 29.2606 143.58 28.9306 141.99 28.3006C139.68 27.4006 138.6 26.1706 138.6 24.3406C138.6 22.5106 139.95 20.8006 143.01 20.8006C144.78 20.8006 146.07 21.3106 146.7 21.7306C146.97 21.9106 147.12 22.2406 146.97 22.5406L146.22 24.0706C146.07 24.3406 145.74 24.3706 145.5 24.2806C145.5 24.2806 144.15 23.6506 143.01 23.6506C142.29 23.6506 141.99 23.9506 141.99 24.3406C141.99 24.8806 142.53 25.0606 143.64 25.5106C145.95 26.4106 147.69 27.4006 147.69 29.7406C147.69 31.7206 145.95 33.4006 142.92 33.4006C140.94 33.4006 139.56 32.7706 138.93 32.2906Z" fill="#030303"/>
</g>
</g>
</svg>
