<svg width="14" height="62" viewBox="0 0 14 62" fill="none" xmlns="http://www.w3.org/2000/svg">
<path d="M9.73001 61.116C7.68726 61.116 5.93375 59.5794 5.93375 57.4282C5.93375 55.5662 7.34379 54.0477 9.29615 54.0477C9.42269 54.0477 9.6577 54.0658 9.78424 54.0838C9.96501 54.1019 10.0916 54.2646 10.0916 54.4273L10.0916 59.0551C10.8327 59.0009 11.6643 58.3682 11.6643 57.3197C11.6643 56.7593 11.4474 56.2351 11.2124 55.9097C11.1039 55.7289 11.0677 55.5662 11.2124 55.4397L12.062 54.6985C12.1885 54.5719 12.3874 54.5358 12.532 54.7166C13.0924 55.3131 13.5263 56.2351 13.5263 57.4101C13.5263 59.5794 11.8089 61.116 9.73001 61.116ZM8.82614 58.8924L8.82613 56.1628C8.15727 56.217 7.59687 56.7955 7.59687 57.4824C7.59687 58.2055 8.13919 58.8021 8.82614 58.8924Z" fill="black"/>
<path d="M12.8574 53.1743C12.767 53.2828 12.6224 53.3551 12.4778 53.2828L11.5016 52.7947C11.3208 52.7224 11.2847 52.5416 11.3751 52.3789C11.3751 52.3789 11.8089 51.5654 11.8089 50.7339C11.8089 50.3723 11.6643 50.1192 11.357 50.1192C11.0316 50.1192 10.8327 50.3723 10.4531 51.3304C9.91078 52.7224 9.16961 53.3732 8.06688 53.3732C6.96416 53.3732 5.93375 52.5597 5.93375 50.7158C5.93375 49.6492 6.24106 48.8719 6.49415 48.4923C6.60261 48.3296 6.80146 48.2392 6.98224 48.3296L7.90419 48.7815C8.06688 48.8719 8.08496 49.0708 8.03073 49.2154C8.03073 49.2154 7.6511 50.0289 7.6511 50.7158C7.6511 51.1497 7.83188 51.3304 8.06688 51.3304C8.39228 51.3304 8.50074 51.005 8.7719 50.3362C9.31422 48.9442 9.91078 47.8957 11.3208 47.8957C12.5139 47.8957 13.5263 48.9442 13.5263 50.77C13.5263 51.9631 13.1466 52.7947 12.8574 53.1743Z" fill="black"/>
<path d="M11.1943 46.2822L8.01265 46.2822L8.01265 46.8968C8.01265 47.0776 7.84995 47.2222 7.66918 47.2222L6.45799 47.2222C6.25914 47.2222 6.11452 47.0776 6.11452 46.8968L6.11452 46.2822L4.10793 46.2822C3.92715 46.2822 3.76446 46.1195 3.76446 45.9387L3.74638 44.4564C3.74638 44.2756 3.90908 44.131 4.08985 44.131L6.11452 44.131L6.11452 42.5401C6.11452 42.3413 6.25914 42.1967 6.45799 42.1967L7.66918 42.1967C7.84995 42.1967 8.01265 42.3413 8.01265 42.5401L8.01265 44.131L10.905 44.131C11.4112 44.131 11.4835 43.8598 11.4835 43.5706C11.4835 43.2632 11.357 42.8836 11.2847 42.6848C11.2124 42.4859 11.3027 42.3413 11.4835 42.2871L12.6224 41.9255C12.8032 41.8532 12.9839 41.9436 13.0562 42.1244C13.1105 42.2148 13.5263 43.3898 13.5263 44.2756C13.5263 45.6675 12.6585 46.2822 11.1943 46.2822Z" fill="black"/>
<path d="M13.002 37.6876L12.5862 37.6876C11.14 36.4945 8.17535 34.2168 6.56646 33.0056C5.87951 32.4452 5.17449 32.0836 4.55986 32.0836C3.74638 32.0836 2.91482 32.6983 2.91482 33.9998C2.91482 34.8676 3.52945 35.6087 3.98139 36.0245C4.126 36.1691 4.126 36.368 3.98139 36.5126L3.11367 37.3803C3.00521 37.4888 2.78828 37.5249 2.64366 37.3984C2.64366 37.3984 0.872069 35.9884 0.872069 33.8371C0.872069 31.2521 2.51711 29.8059 4.46948 29.8059C5.64451 29.8059 6.38568 30.312 7.39802 31.0171C8.50074 31.7944 10.2 33.1683 11.4112 34.1264L11.4112 30.2217C11.4112 30.0409 11.5739 29.8782 11.7547 29.8782L13.002 29.8782C13.1828 29.8782 13.3455 30.0409 13.3455 30.2217L13.3455 37.3442C13.3455 37.543 13.1828 37.6876 13.002 37.6876Z" fill="black"/>
<path d="M13.5263 23.5949C13.5263 26.4873 11.1581 28.1504 7.19917 28.1504C3.24021 28.1504 0.872069 26.4873 0.872069 23.5949C0.872069 20.7025 3.24021 19.0394 7.19917 19.0394C11.1581 19.0394 13.5263 20.7025 13.5263 23.5949ZM11.3931 23.5949C11.3931 22.2029 9.8927 21.4075 7.19917 21.4075C4.52371 21.4075 3.0052 22.2029 3.0052 23.5949C3.0052 24.9868 4.52371 25.7822 7.19917 25.7822C9.8927 25.7822 11.3931 24.9868 11.3931 23.5949Z" fill="black"/>
<path d="M13.002 17.8265L12.5862 17.8265C11.14 16.6334 8.17535 14.3556 6.56646 13.1444C5.87951 12.584 5.17449 12.2225 4.55986 12.2225C3.74638 12.2225 2.91482 12.8371 2.91482 14.1387C2.91482 15.0064 3.52945 15.7476 3.98139 16.1634C4.126 16.308 4.126 16.5068 3.98139 16.6514L3.11367 17.5192C3.0052 17.6276 2.78827 17.6638 2.64366 17.5372C2.64366 17.5372 0.872068 16.1272 0.872068 13.976C0.872068 11.3909 2.51711 9.94472 4.46947 9.94472C5.64451 9.94472 6.38568 10.4509 7.39802 11.1559C8.50074 11.9332 10.2 13.3071 11.4112 14.2652L11.4112 10.3605C11.4112 10.1797 11.5739 10.017 11.7547 10.017L13.002 10.017C13.1828 10.017 13.3455 10.1797 13.3455 10.3605L13.3455 17.483C13.3455 17.6819 13.1828 17.8265 13.002 17.8265Z" fill="black"/>
<path d="M11.9174 8.74116C11.7908 8.84963 11.592 8.83155 11.4654 8.72309L10.5796 7.80114C10.435 7.63844 10.435 7.47574 10.5796 7.33112C10.652 7.27689 11.5558 6.21033 11.5558 5.1076C11.5558 4.13142 10.8508 3.1914 9.85655 3.1914C8.91652 3.1914 8.06688 4.05911 8.06688 5.68608L8.06688 6.69842C8.06688 6.89727 7.92226 7.04189 7.70533 7.04189L6.56646 7.04189C6.33145 7.04189 6.20491 6.91535 6.20491 6.69842L6.20491 5.68608C6.20491 4.20373 5.46373 3.44448 4.54178 3.44448C3.54753 3.44448 2.87866 4.27604 2.87866 5.19799C2.87866 6.13802 3.38483 6.7165 3.74638 7.02381C3.891 7.15035 3.90908 7.3492 3.76446 7.5119L2.93289 8.39769C2.80635 8.54231 2.58942 8.52424 2.46288 8.39769C2.46288 8.39769 0.872068 7.02381 0.872068 4.99914C0.872068 2.90216 2.15556 1.14865 4.18024 1.14865C5.5722 1.14865 6.62069 2.19714 7.00031 3.01062L7.05454 3.01062C7.41609 2.16099 8.39228 0.823257 10.0012 0.823257C12.0439 0.823257 13.5263 2.48638 13.5263 4.98106C13.5263 7.24074 12.3874 8.34346 11.9174 8.74116Z" fill="black"/>
</svg>
