<svg width="346" height="346" viewBox="0 0 346 346" fill="none" xmlns="http://www.w3.org/2000/svg">
<path d="M251.298 217.74C250.114 217.74 248.993 218.207 248.152 219.048C246.408 220.792 246.408 223.595 248.152 225.308C248.993 226.149 250.114 226.617 251.298 226.617C252.482 226.617 253.603 226.149 254.444 225.308C254.693 225.059 254.693 224.654 254.444 224.374C254.195 224.125 253.79 224.125 253.509 224.374C252.918 224.966 252.139 225.277 251.298 225.277C250.457 225.277 249.678 224.966 249.087 224.374C247.872 223.159 247.872 221.166 249.087 219.951C249.678 219.359 250.457 219.048 251.298 219.048C252.139 219.048 252.918 219.359 253.509 219.951C253.759 220.2 254.164 220.2 254.444 219.951C254.693 219.702 254.693 219.297 254.444 219.017C253.572 218.176 252.482 217.74 251.298 217.74ZM251.298 214.563C247.093 214.563 243.698 217.989 243.698 222.163C243.698 226.336 247.093 229.762 251.298 229.762C255.472 229.762 258.898 226.367 258.898 222.163C258.898 217.958 255.472 214.563 251.298 214.563ZM251.298 228.454C247.841 228.454 245.006 225.651 245.006 222.163C245.006 218.674 247.81 215.871 251.298 215.871C254.755 215.871 257.59 218.674 257.59 222.163C257.59 225.651 254.786 228.454 251.298 228.454Z" fill="black"/>
<path d="M107.927 228.208V117.706H174.184V129.577H121.308V166.914H169.22V178.784H121.308V228.208H107.927Z" fill="black"/>
<path d="M237.526 117.706L237.526 228.208L171.269 228.208L171.269 216.337L224.145 216.337L224.145 179L176.233 179L176.233 167.13L224.145 167.13L224.145 117.706L237.526 117.706Z" fill="black"/>
<path fill-rule="evenodd" clip-rule="evenodd" d="M129.597 51.0616C93.2798 63.9114 66.2929 91.3266 52.8747 124.433L47.3141 122.179C61.3499 87.5491 89.5924 58.8516 127.596 45.4052C198.041 20.4804 275.353 57.3817 300.278 127.827C325.203 198.272 288.302 275.584 217.857 300.509C147.412 325.434 70.0992 288.532 45.1744 218.088L50.8307 216.086C74.6503 283.407 148.534 318.672 215.855 294.853C283.176 271.033 318.441 197.149 294.622 129.828C270.802 62.507 196.918 27.2421 129.597 51.0616Z" fill="black"/>
<path d="M49.73 200.116C47.6873 200.116 45.9337 198.579 45.9337 196.428C45.9337 194.566 47.3438 193.048 49.2961 193.048C49.4227 193.048 49.6577 193.066 49.7842 193.084C49.965 193.102 50.0916 193.265 50.0916 193.427L50.0916 198.055C50.8327 198.001 51.6643 197.368 51.6643 196.32C51.6643 195.759 51.4474 195.235 51.2124 194.91C51.1039 194.729 51.0677 194.566 51.2124 194.44L52.062 193.698C52.1885 193.572 52.3874 193.536 52.532 193.717C53.0924 194.313 53.5263 195.235 53.5263 196.41C53.5263 198.579 51.8089 200.116 49.73 200.116ZM48.8261 197.892L48.8261 195.163C48.1573 195.217 47.5969 195.795 47.5969 196.482C47.5969 197.206 48.1392 197.802 48.8261 197.892Z" fill="black"/>
<path d="M52.8574 192.174C52.767 192.283 52.6224 192.355 52.4778 192.283L51.5016 191.795C51.3208 191.722 51.2847 191.542 51.3751 191.379C51.3751 191.379 51.8089 190.565 51.8089 189.734C51.8089 189.372 51.6643 189.119 51.357 189.119C51.0316 189.119 50.8327 189.372 50.4531 190.33C49.9108 191.722 49.1696 192.373 48.0669 192.373C46.9642 192.373 45.9337 191.56 45.9337 189.716C45.9337 188.649 46.2411 187.872 46.4941 187.492C46.6026 187.33 46.8015 187.239 46.9822 187.33L47.9042 187.782C48.0669 187.872 48.085 188.071 48.0307 188.215C48.0307 188.215 47.6511 189.029 47.6511 189.716C47.6511 190.15 47.8319 190.33 48.0669 190.33C48.3923 190.33 48.5007 190.005 48.7719 189.336C49.3142 187.944 49.9108 186.896 51.3208 186.896C52.5139 186.896 53.5263 187.944 53.5263 189.77C53.5263 190.963 53.1466 191.795 52.8574 192.174Z" fill="black"/>
<path d="M51.1943 185.282L48.0127 185.282L48.0127 185.897C48.0127 186.078 47.85 186.222 47.6692 186.222L46.458 186.222C46.2591 186.222 46.1145 186.078 46.1145 185.897L46.1145 185.282L44.1079 185.282C43.9272 185.282 43.7645 185.119 43.7645 184.939L43.7464 183.456C43.7464 183.276 43.9091 183.131 44.0899 183.131L46.1145 183.131L46.1145 181.54C46.1145 181.341 46.2591 181.197 46.458 181.197L47.6692 181.197C47.85 181.197 48.0127 181.341 48.0127 181.54L48.0127 183.131L50.905 183.131C51.4112 183.131 51.4835 182.86 51.4835 182.571C51.4835 182.263 51.357 181.884 51.2847 181.685C51.2124 181.486 51.3027 181.341 51.4835 181.287L52.6224 180.926C52.8032 180.853 52.9839 180.944 53.0562 181.124C53.1105 181.215 53.5263 182.39 53.5263 183.276C53.5263 184.668 52.6585 185.282 51.1943 185.282Z" fill="black"/>
<path d="M53.002 176.688L52.5862 176.688C51.14 175.495 48.1753 173.217 46.5665 172.006C45.8795 171.445 45.1745 171.084 44.5599 171.084C43.7464 171.084 42.9148 171.698 42.9148 173C42.9148 173.868 43.5294 174.609 43.9814 175.025C44.126 175.169 44.126 175.368 43.9814 175.513L43.1137 176.38C43.0052 176.489 42.7883 176.525 42.6437 176.398C42.6437 176.398 40.8721 174.988 40.8721 172.837C40.8721 170.252 42.5171 168.806 44.4695 168.806C45.6445 168.806 46.3857 169.312 47.398 170.017C48.5007 170.794 50.2 172.168 51.4112 173.126L51.4112 169.222C51.4112 169.041 51.5739 168.878 51.7547 168.878L53.002 168.878C53.1828 168.878 53.3455 169.041 53.3455 169.222L53.3455 176.344C53.3455 176.543 53.1828 176.688 53.002 176.688Z" fill="black"/>
<path d="M53.5263 162.595C53.5263 165.487 51.1581 167.15 47.1992 167.15C43.2402 167.15 40.8721 165.487 40.8721 162.595C40.8721 159.702 43.2402 158.039 47.1992 158.039C51.1581 158.039 53.5263 159.702 53.5263 162.595ZM51.3931 162.595C51.3931 161.203 49.8927 160.408 47.1992 160.408C44.5237 160.408 43.0052 161.203 43.0052 162.595C43.0052 163.987 44.5237 164.782 47.1992 164.782C49.8927 164.782 51.3931 163.987 51.3931 162.595Z" fill="black"/>
<path d="M53.002 156.826L52.5862 156.826C51.14 155.633 48.1753 153.356 46.5665 152.144C45.8795 151.584 45.1745 151.222 44.5599 151.222C43.7464 151.222 42.9148 151.837 42.9148 153.139C42.9148 154.006 43.5294 154.748 43.9814 155.163C44.126 155.308 44.126 155.507 43.9814 155.651L43.1137 156.519C43.0052 156.628 42.7883 156.664 42.6437 156.537C42.6437 156.537 40.8721 155.127 40.8721 152.976C40.8721 150.391 42.5171 148.945 44.4695 148.945C45.6445 148.945 46.3857 149.451 47.398 150.156C48.5007 150.933 50.2 152.307 51.4112 153.265L51.4112 149.361C51.4112 149.18 51.5739 149.017 51.7547 149.017L53.002 149.017C53.1828 149.017 53.3455 149.18 53.3455 149.361L53.3455 156.483C53.3455 156.682 53.1828 156.826 53.002 156.826Z" fill="black"/>
<path d="M51.9174 147.741C51.7908 147.85 51.592 147.832 51.4654 147.723L50.5796 146.801C50.435 146.638 50.435 146.476 50.5796 146.331C50.652 146.277 51.5558 145.21 51.5558 144.108C51.5558 143.131 50.8508 142.191 49.8565 142.191C48.9165 142.191 48.0669 143.059 48.0669 144.686L48.0669 145.698C48.0669 145.897 47.9223 146.042 47.7053 146.042L46.5665 146.042C46.3314 146.042 46.2049 145.915 46.2049 145.698L46.2049 144.686C46.2049 143.204 45.4637 142.444 44.5418 142.444C43.5475 142.444 42.8787 143.276 42.8787 144.198C42.8787 145.138 43.3848 145.716 43.7464 146.024C43.891 146.15 43.9091 146.349 43.7645 146.512L42.9329 147.398C42.8064 147.542 42.5894 147.524 42.4629 147.398C42.4629 147.398 40.8721 146.024 40.8721 143.999C40.8721 141.902 42.1556 140.149 44.1802 140.149C45.5722 140.149 46.6207 141.197 47.0003 142.011L47.0545 142.011C47.4161 141.161 48.3923 139.823 50.0012 139.823C52.0439 139.823 53.5263 141.486 53.5263 143.981C53.5263 146.241 52.3874 147.343 51.9174 147.741Z" fill="black"/>
</svg>
