<svg width="16" height="16" viewBox="0 0 16 16" fill="none" xmlns="http://www.w3.org/2000/svg">
<path d="M8.29803 3.73983C7.11446 3.73983 5.99318 4.20703 5.15222 5.04799C3.408 6.7922 3.408 9.59541 5.15222 11.3085C5.99318 12.1494 7.11446 12.6166 8.29803 12.6166C9.48161 12.6166 10.6029 12.1494 11.4438 11.3085C11.693 11.0593 11.693 10.6544 11.4438 10.3741C11.1947 10.1249 10.7898 10.1249 10.5094 10.3741C9.91766 10.9659 9.139 11.2773 8.29803 11.2773C7.45707 11.2773 6.67841 10.9659 6.08662 10.3741C4.8719 9.15935 4.8719 7.16596 6.08662 5.95124C6.67841 5.35946 7.45707 5.04799 8.29803 5.04799C9.139 5.04799 9.91766 5.35946 10.5094 5.95124C10.7586 6.20042 11.1635 6.20042 11.4438 5.95124C11.693 5.70207 11.693 5.29716 11.4438 5.01684C10.5717 4.17588 9.48161 3.73983 8.29803 3.73983ZM8.29803 0.562866C4.09323 0.562866 0.698242 3.989 0.698242 8.16266C0.698242 12.3363 4.09323 15.7625 8.29803 15.7625C12.4717 15.7625 15.8978 12.3675 15.8978 8.16266C15.8978 3.95786 12.4717 0.562866 8.29803 0.562866ZM8.29803 14.4543C4.84075 14.4543 2.0064 11.6511 2.0064 8.16266C2.0064 4.67423 4.80961 1.87103 8.29803 1.87103C11.7553 1.87103 14.5897 4.67423 14.5897 8.16266C14.5897 11.6511 11.7865 14.4543 8.29803 14.4543Z" fill="black"/>
</svg>
