<svg width="347" height="348" viewBox="0 0 347 348" fill="none" xmlns="http://www.w3.org/2000/svg">
<path d="M252.32 218.744C251.136 218.744 250.015 219.211 249.174 220.052C247.429 221.796 247.429 224.6 249.174 226.313C250.015 227.154 251.136 227.621 252.32 227.621C253.503 227.621 254.624 227.154 255.465 226.313C255.715 226.063 255.715 225.659 255.465 225.378C255.216 225.129 254.811 225.129 254.531 225.378C253.939 225.97 253.16 226.281 252.32 226.281C251.479 226.281 250.7 225.97 250.108 225.378C248.893 224.164 248.893 222.17 250.108 220.955C250.7 220.364 251.479 220.052 252.32 220.052C253.16 220.052 253.939 220.364 254.531 220.955C254.78 221.205 255.185 221.205 255.465 220.955C255.715 220.706 255.715 220.301 255.465 220.021C254.593 219.18 253.503 218.744 252.32 218.744ZM252.32 215.567C248.115 215.567 244.72 218.993 244.72 223.167C244.72 227.34 248.115 230.767 252.32 230.767C256.493 230.767 259.919 227.372 259.919 223.167C259.919 218.962 256.493 215.567 252.32 215.567ZM252.32 229.458C248.862 229.458 246.028 226.655 246.028 223.167C246.028 219.678 248.831 216.875 252.32 216.875C255.777 216.875 258.611 219.678 258.611 223.167C258.611 226.655 255.808 229.458 252.32 229.458Z" fill="black"/>
<path d="M108.947 229.212V118.71H175.205V130.581H122.328V167.918H170.241V179.788H122.328V229.212H108.947Z" fill="black"/>
<path d="M238.547 118.71L238.547 229.212L172.289 229.212L172.289 217.341L225.166 217.341L225.166 180.004L177.253 180.004L177.253 168.134L225.166 168.134L225.166 118.71L238.547 118.71Z" fill="black"/>
<path fill-rule="evenodd" clip-rule="evenodd" d="M130.619 52.0655C94.3013 64.9153 67.3144 92.3306 53.8962 125.436L48.3356 123.183C62.3714 88.553 90.6139 59.8555 128.617 46.4091C199.062 21.4843 276.375 58.3856 301.3 128.831C326.224 199.276 289.323 276.588 218.878 301.513C148.433 326.438 71.1207 289.536 46.1959 219.091L51.8522 217.09C75.6718 284.411 149.556 319.676 216.877 295.856C284.198 272.037 319.463 198.153 295.643 130.832C271.824 63.5109 197.94 28.246 130.619 52.0655Z" fill="black"/>
<path fill-rule="evenodd" clip-rule="evenodd" d="M130.023 52.2661C93.7666 65.2868 66.9092 92.8288 53.6471 125.998L48.0759 123.77C61.9485 89.0746 90.0555 60.2444 127.995 46.6192C198.322 21.3629 275.807 57.8997 301.064 128.227C326.32 198.553 289.783 276.039 219.456 301.295C149.13 326.551 71.6442 290.015 46.3878 219.688L52.0347 217.66C76.1711 284.868 150.22 319.784 217.428 295.648C284.637 271.512 319.553 197.463 295.417 130.254C271.28 63.0464 197.231 28.1298 130.023 52.2661Z" fill="white"/>
<path d="M50.7515 201.12C48.7087 201.12 46.9552 199.584 46.9552 197.432C46.9552 195.57 48.3653 194.052 50.3176 194.052C50.4442 194.052 50.6792 194.07 50.8057 194.088C50.9865 194.106 51.113 194.269 51.113 194.431L51.113 199.059C51.8542 199.005 52.6858 198.372 52.6858 197.324C52.6858 196.763 52.4688 196.239 52.2338 195.914C52.1254 195.733 52.0892 195.57 52.2338 195.444L53.0835 194.703C53.21 194.576 53.4089 194.54 53.5535 194.721C54.1139 195.317 54.5477 196.239 54.5477 197.414C54.5477 199.584 52.8304 201.12 50.7515 201.12ZM49.8476 198.897L49.8476 196.167C49.1788 196.221 48.6184 196.8 48.6184 197.487C48.6184 198.21 49.1607 198.806 49.8476 198.897Z" fill="black"/>
<path d="M53.8789 193.178C53.7885 193.287 53.6439 193.359 53.4993 193.287L52.5231 192.799C52.3423 192.727 52.3061 192.546 52.3965 192.383C52.3965 192.383 52.8304 191.57 52.8304 190.738C52.8304 190.376 52.6858 190.123 52.3785 190.123C52.0531 190.123 51.8542 190.376 51.4746 191.335C50.9323 192.727 50.1911 193.377 49.0884 193.377C47.9856 193.377 46.9552 192.564 46.9552 190.72C46.9552 189.653 47.2625 188.876 47.5156 188.496C47.6241 188.334 47.8229 188.243 48.0037 188.334L48.9257 188.786C49.0884 188.876 49.1064 189.075 49.0522 189.22C49.0522 189.22 48.6726 190.033 48.6726 190.72C48.6726 191.154 48.8534 191.335 49.0884 191.335C49.4138 191.335 49.5222 191.009 49.7934 190.34C50.3357 188.948 50.9323 187.9 52.3423 187.9C53.5354 187.9 54.5477 188.948 54.5477 190.774C54.5477 191.967 54.1681 192.799 53.8789 193.178Z" fill="black"/>
<path d="M52.2158 186.286L49.0341 186.286L49.0341 186.901C49.0341 187.082 48.8714 187.226 48.6907 187.226L47.4795 187.226C47.2806 187.226 47.136 187.082 47.136 186.901L47.136 186.286L45.1294 186.286C44.9486 186.286 44.7859 186.124 44.7859 185.943L44.7679 184.461C44.7679 184.28 44.9306 184.135 45.1113 184.135L47.136 184.135L47.136 182.544C47.136 182.345 47.2806 182.201 47.4795 182.201L48.6907 182.201C48.8714 182.201 49.0341 182.345 49.0341 182.544L49.0341 184.135L51.9265 184.135C52.4327 184.135 52.505 183.864 52.505 183.575C52.505 183.267 52.3785 182.888 52.3061 182.689C52.2338 182.49 52.3242 182.345 52.505 182.291L53.6439 181.93C53.8247 181.857 54.0054 181.948 54.0777 182.129C54.132 182.219 54.5477 183.394 54.5477 184.28C54.5477 185.672 53.68 186.286 52.2158 186.286Z" fill="black"/>
<path d="M54.0235 177.692L53.6077 177.692C52.1615 176.499 49.1968 174.221 47.5879 173.01C46.901 172.449 46.196 172.088 45.5813 172.088C44.7679 172.088 43.9363 172.702 43.9363 174.004C43.9363 174.872 44.5509 175.613 45.0029 176.029C45.1475 176.173 45.1475 176.372 45.0029 176.517L44.1352 177.384C44.0267 177.493 43.8098 177.529 43.6651 177.403C43.6651 177.403 41.8936 175.993 41.8936 173.841C41.8936 171.256 43.5386 169.81 45.491 169.81C46.666 169.81 47.4072 170.316 48.4195 171.021C49.5222 171.799 51.2215 173.172 52.4327 174.131L52.4327 170.226C52.4327 170.045 52.5954 169.882 52.7762 169.882L54.0235 169.882C54.2043 169.882 54.367 170.045 54.367 170.226L54.367 177.348C54.367 177.547 54.2043 177.692 54.0235 177.692Z" fill="black"/>
<path d="M54.5477 163.599C54.5477 166.491 52.1796 168.155 48.2207 168.155C44.2617 168.155 41.8936 166.491 41.8936 163.599C41.8936 160.707 44.2617 159.044 48.2206 159.044C52.1796 159.044 54.5477 160.707 54.5477 163.599ZM52.4146 163.599C52.4146 162.207 50.9142 161.412 48.2206 161.412C45.5452 161.412 44.0267 162.207 44.0267 163.599C44.0267 164.991 45.5452 165.786 48.2207 165.786C50.9142 165.786 52.4146 164.991 52.4146 163.599Z" fill="black"/>
<path d="M54.0235 157.831L53.6077 157.831C52.1615 156.638 49.1968 154.36 47.5879 153.149C46.901 152.588 46.196 152.227 45.5813 152.227C44.7679 152.227 43.9363 152.841 43.9363 154.143C43.9363 155.011 44.5509 155.752 45.0029 156.168C45.1475 156.312 45.1475 156.511 45.0029 156.656L44.1352 157.523C44.0267 157.632 43.8098 157.668 43.6651 157.541C43.6651 157.541 41.8936 156.131 41.8936 153.98C41.8936 151.395 43.5386 149.949 45.491 149.949C46.666 149.949 47.4072 150.455 48.4195 151.16C49.5222 151.937 51.2215 153.311 52.4327 154.269L52.4327 150.365C52.4327 150.184 52.5954 150.021 52.7762 150.021L54.0235 150.021C54.2043 150.021 54.367 150.184 54.367 150.365L54.367 157.487C54.367 157.686 54.2043 157.831 54.0235 157.831Z" fill="black"/>
<path d="M52.9389 148.745C52.8123 148.854 52.6135 148.836 52.4869 148.727L51.6011 147.805C51.4565 147.643 51.4565 147.48 51.6011 147.335C51.6734 147.281 52.5773 146.214 52.5773 145.112C52.5773 144.136 51.8723 143.196 50.878 143.196C49.938 143.196 49.0884 144.063 49.0884 145.69L49.0884 146.703C49.0884 146.901 48.9437 147.046 48.7268 147.046L47.5879 147.046C47.3529 147.046 47.2264 146.919 47.2264 146.703L47.2264 145.69C47.2264 144.208 46.4852 143.449 45.5633 143.449C44.569 143.449 43.9001 144.28 43.9001 145.202C43.9001 146.142 44.4063 146.721 44.7679 147.028C44.9125 147.155 44.9306 147.353 44.7859 147.516L43.9544 148.402C43.8278 148.546 43.6109 148.528 43.4844 148.402C43.4844 148.402 41.8936 147.028 41.8936 145.003C41.8936 142.906 43.177 141.153 45.2017 141.153C46.5937 141.153 47.6422 142.201 48.0218 143.015L48.076 143.015C48.4376 142.165 49.4138 140.827 51.0227 140.827C53.0654 140.827 54.5477 142.491 54.5477 144.985C54.5477 147.245 53.4089 148.348 52.9389 148.745Z" fill="black"/>
</svg>
